<svg id="Layer_1" data-name="Layer 1" xmlns="http://www.w3.org/2000/svg" xmlns:xlink="http://www.w3.org/1999/xlink" viewBox="0 0 49.48 35.05"><defs><style>.cls-1{fill:url(#linear-gradient);}.cls-2{fill:url(#linear-gradient-2);}.cls-3{fill:#c0e5e4;}.cls-4{fill:url(#linear-gradient-3);}.cls-5{fill:url(#linear-gradient-4);}.cls-6{fill:url(#linear-gradient-5);}.cls-7{fill:#eaeaea;}</style><linearGradient id="linear-gradient" x1="21.18" y1="30.71" x2="29.79" y2="30.71" gradientUnits="userSpaceOnUse"><stop offset="0" stop-color="#a6206d"/><stop offset="1" stop-color="#df4f9c"/></linearGradient><linearGradient id="linear-gradient-2" x1="21.62" y1="4.31" x2="30.24" y2="4.31" gradientUnits="userSpaceOnUse"><stop offset="0" stop-color="#f26522"/><stop offset="1" stop-color="#ffd202"/></linearGradient><linearGradient id="linear-gradient-3" x1="138.42" y1="16.43" x2="154.94" y2="16.43" gradientUnits="userSpaceOnUse"><stop offset="0" stop-color="#75cbca"/><stop offset="1" stop-color="#34aaa1"/></linearGradient><linearGradient id="linear-gradient-4" x1="145.16" y1="32.72" x2="152.73" y2="32.72" gradientUnits="userSpaceOnUse"><stop offset="0" stop-color="#df4f9c"/><stop offset="1" stop-color="#ecabcd"/></linearGradient><linearGradient id="linear-gradient-5" x1="419.74" y1="-6.06" x2="426.69" y2="-6.06" gradientTransform="matrix(1.1, 0, 0, 1.09, -314.97, 13.11)" gradientUnits="userSpaceOnUse"><stop offset="0" stop-color="#f4c778"/><stop offset="1" stop-color="#ffd202"/></linearGradient></defs><circle class="cls-1" cx="25.49" cy="30.71" r="4.31"/><circle class="cls-2" cx="25.93" cy="4.31" r="4.31"/><path class="cls-3" d="M154.45,21.69a3.16,3.16,0,0,1-2,1.44A3.21,3.21,0,0,1,149,21.65h0a3.52,3.52,0,0,0-4.24-1.23h0a3.36,3.36,0,0,1-.48.13,4.87,4.87,0,0,1-5.84-3.69,4.66,4.66,0,0,1,0-2.26,3.07,3.07,0,0,0,.07.42,5.35,5.35,0,0,0,6.39,4c.18,0,.36-.1.53-.15h0a5.23,5.23,0,0,1,1.55-.26,3.64,3.64,0,0,1,3.08,1.61,3.5,3.5,0,0,0,3.79,1.62A4,4,0,0,0,154.45,21.69Z" transform="translate(-123.97)"/><path class="cls-4" d="M154.45,21.69a4,4,0,0,1-.59.18,3.5,3.5,0,0,1-3.79-1.62A3.64,3.64,0,0,0,147,18.64a5.23,5.23,0,0,0-1.55.26h0c-.17.05-.35.11-.53.15a5.35,5.35,0,0,1-6.39-4,3.07,3.07,0,0,1-.07-.42,4.88,4.88,0,0,1,9.35-.42s.18.43.44.91a3.74,3.74,0,0,0,.93,1.23,3.42,3.42,0,0,0,2.15.5h.09a3.2,3.2,0,0,1,3.48,2.48A3.16,3.16,0,0,1,154.45,21.69Z" transform="translate(-123.97)"/><path class="cls-5" d="M152.73,33.55A4.33,4.33,0,0,1,150,35a4.2,4.2,0,0,1-4.79-3.52,3.61,3.61,0,0,1,0-1.09A5.25,5.25,0,0,0,151,34.07,5.48,5.48,0,0,0,152.73,33.55Z" transform="translate(-123.97)"/><path class="cls-6" d="M153.22,7.11a4.34,4.34,0,0,1-2.76,1.45,4.22,4.22,0,0,1-4.83-3.5,3.54,3.54,0,0,1,0-1.08,5.27,5.27,0,0,0,5.84,3.65A5.52,5.52,0,0,0,153.22,7.11Z" transform="translate(-123.97)"/><path class="cls-7" d="M132.8,34.27a11.38,11.38,0,0,1-2.83-.36,7.51,7.51,0,0,1-2.58-1.2,7.68,7.68,0,0,1-2-2.05,8.36,8.36,0,0,1-1.11-2.61,12.37,12.37,0,0,1-.34-2.83V9.83A12.31,12.31,0,0,1,124.31,7a8.17,8.17,0,0,1,1.11-2.61,7.39,7.39,0,0,1,2-2A7.54,7.54,0,0,1,130,1.13,11.38,11.38,0,0,1,132.8.77a10.38,10.38,0,0,1,4.06.83A7,7,0,0,1,140,4.21,8.89,8.89,0,0,1,141.5,8L138,8.67a6.49,6.49,0,0,0-.87-2.41,4.31,4.31,0,0,0-1.87-1.72,5.82,5.82,0,0,0-4.64-.13,4.47,4.47,0,0,0-1.78,1.29,5.13,5.13,0,0,0-1,1.94,8.55,8.55,0,0,0-.29,2.19V25.22a8.42,8.42,0,0,0,.29,2.18,5.13,5.13,0,0,0,1,1.94,4.59,4.59,0,0,0,1.78,1.3,5.77,5.77,0,0,0,4.64-.14,4.2,4.2,0,0,0,1.87-1.72,6.45,6.45,0,0,0,.87-2.4l3.48.62a9.69,9.69,0,0,1-.93,3,7.53,7.53,0,0,1-1.94,2.4,7.66,7.66,0,0,1-2.75,1.45A10.78,10.78,0,0,1,132.8,34.27Z" transform="translate(-123.97)"/><path class="cls-7" d="M164.63,34.27a11.5,11.5,0,0,1-3.08-.42,7.23,7.23,0,0,1-2.72-1.45A8.07,8.07,0,0,1,156.91,30a8.17,8.17,0,0,1-.85-3l3.53-.49a5.93,5.93,0,0,0,.78,2.36,3.86,3.86,0,0,0,1.83,1.65,5.75,5.75,0,0,0,5-.06A4,4,0,0,0,169,28.63a5.58,5.58,0,0,0,.63-2.57,5.65,5.65,0,0,0-1.7-4,13.36,13.36,0,0,0-3.72-2.77,24.62,24.62,0,0,1-3.88-2.38,10.55,10.55,0,0,1-3-3.46,9.08,9.08,0,0,1-1.11-4.35,9.35,9.35,0,0,1,.6-3.3A7.38,7.38,0,0,1,158.74,3a7.25,7.25,0,0,1,2.88-1.69A10.86,10.86,0,0,1,164.9.77,11.43,11.43,0,0,1,168,1.2a7,7,0,0,1,2.72,1.45,7.55,7.55,0,0,1,1.92,2.43,7.88,7.88,0,0,1,.85,3l-3.52.49a6,6,0,0,0-.79-2.36,4,4,0,0,0-1.82-1.65,5.82,5.82,0,0,0-5,.07,4,4,0,0,0-1.85,1.83A5.5,5.5,0,0,0,159.86,9a5.66,5.66,0,0,0,1.69,4,13.42,13.42,0,0,0,3.73,2.76,25.06,25.06,0,0,1,3.87,2.39,10.3,10.3,0,0,1,3,3.45A9.15,9.15,0,0,1,173.24,26a9.36,9.36,0,0,1-.61,3.3,7.48,7.48,0,0,1-4.72,4.49A10.94,10.94,0,0,1,164.63,34.27Z" transform="translate(-123.97)"/></svg>