<svg id="Layer_1" height="50px" width="200px" data-name="Layer 1" xmlns="http://www.w3.org/2000/svg" xmlns:xlink="http://www.w3.org/1999/xlink" viewBox="0 0 288.42 55.16"><defs><style>.cls-1{fill:#eaeaea;}.cls-2{fill:url(#linear-gradient);}.cls-3{fill:url(#linear-gradient-2);}.cls-4{fill:#c0e5e4;}.cls-5{fill:url(#linear-gradient-3);}.cls-6{fill:url(#linear-gradient-4);}.cls-7{fill:url(#linear-gradient-5);}.cls-8{font-size:13px;fill:#df6926;font-family:NeuveGrotesque-Bold, Neuve Grotesque;font-weight:700;}.cls-14,.cls-9{letter-spacing:-0.03em;}.cls-10{fill:#000;}.cls-11,.cls-12,.cls-13,.cls-14{fill:#3bbeb5;}.cls-12,.cls-16{letter-spacing:-0.01em;}.cls-13{letter-spacing:-0.02em;}.cls-15,.cls-16,.cls-17,.cls-18,.cls-19{fill:#df76af;}.cls-17{letter-spacing:-0.02em;}.cls-18{letter-spacing:-0.03em;}.cls-19{letter-spacing:0em;}.cls-20{fill:#df4f9c;}</style><linearGradient id="linear-gradient" x1="6.89" y1="30.71" x2="15.5" y2="30.71" gradientUnits="userSpaceOnUse"><stop offset="0" stop-color="#a6206d"/><stop offset="1" stop-color="#df4f9c"/></linearGradient><linearGradient id="linear-gradient-2" x1="7.33" y1="4.31" x2="15.94" y2="4.31" gradientUnits="userSpaceOnUse"><stop offset="0" stop-color="#f26522"/><stop offset="1" stop-color="#ffd202"/></linearGradient><linearGradient id="linear-gradient-3" x1="0.15" y1="77.46" x2="16.67" y2="77.46" gradientUnits="userSpaceOnUse"><stop offset="0" stop-color="#75cbca"/><stop offset="1" stop-color="#34aaa1"/></linearGradient><linearGradient id="linear-gradient-4" x1="6.89" y1="93.75" x2="14.46" y2="93.75" gradientUnits="userSpaceOnUse"><stop offset="0" stop-color="#df4f9c"/><stop offset="1" stop-color="#ecabcd"/></linearGradient><linearGradient id="linear-gradient-5" x1="293.75" y1="49.69" x2="300.7" y2="49.69" gradientTransform="matrix(1.1, 0, 0, 1.09, -314.97, 13.11)" gradientUnits="userSpaceOnUse"><stop offset="0" stop-color="#f4c778"/><stop offset="1" stop-color="#ffd202"/></linearGradient></defs><path class="cls-1" d="M34.1,96.91a11.38,11.38,0,0,1-2.83-.36,7.73,7.73,0,0,1-4.55-3.25,8.36,8.36,0,0,1-1.11-2.61,11.86,11.86,0,0,1-.34-2.84V72.47a11.78,11.78,0,0,1,.34-2.83A8.17,8.17,0,0,1,26.72,67a7.69,7.69,0,0,1,4.55-3.26,11.38,11.38,0,0,1,2.83-.36,10.38,10.38,0,0,1,4.06.83,7,7,0,0,1,3.17,2.61,8.89,8.89,0,0,1,1.47,3.83l-3.48.63a6.49,6.49,0,0,0-.87-2.41,4.25,4.25,0,0,0-1.87-1.72,5.82,5.82,0,0,0-4.64-.13,4.47,4.47,0,0,0-1.78,1.29,5,5,0,0,0-1,1.94,8.5,8.5,0,0,0-.29,2.19V87.85A8.44,8.44,0,0,0,29.13,90a5,5,0,0,0,1,1.94,4.47,4.47,0,0,0,1.78,1.29,5.59,5.59,0,0,0,2.16.43,5.76,5.76,0,0,0,2.48-.56,4.2,4.2,0,0,0,1.87-1.72A6.43,6.43,0,0,0,39.32,89l3.48.63a9.55,9.55,0,0,1-.93,3A7.46,7.46,0,0,1,39.92,95a7.54,7.54,0,0,1-2.74,1.45A10.78,10.78,0,0,1,34.1,96.91Z" transform="translate(0 -61.03)"/><path class="cls-1" d="M47.93,96.55V63.77h8.52A10.41,10.41,0,0,1,60,64.4a7,7,0,0,1,3,2,8,8,0,0,1,1.74,3.15,12.72,12.72,0,0,1,0,7.13A8,8,0,0,1,63,79.83a7,7,0,0,1-3,2,4.11,4.11,0,0,1-1,.32l7.14,14.4H62.2l-7-14H51.5v14Zm8.52-17.26a5.26,5.26,0,0,0,2.21-.47,4.59,4.59,0,0,0,1.76-1.4,5.63,5.63,0,0,0,1-2,9.55,9.55,0,0,0,0-4.51,5.39,5.39,0,0,0-1-2,4.63,4.63,0,0,0-1.76-1.38A5.41,5.41,0,0,0,56.45,67h-5V79.29Z" transform="translate(0 -61.03)"/><path class="cls-1" d="M71.57,96.55V63.77H87.18V67h-12V77.24h9.5v3.21h-9.5V93.34h12v3.21Z" transform="translate(0 -61.03)"/><path class="cls-1" d="M92.53,96.55V63.77h7.36a10.74,10.74,0,0,1,3.41.56,8.34,8.34,0,0,1,3,1.74,9.56,9.56,0,0,1,2.12,2.74,11.64,11.64,0,0,1,1.11,3.26,18.71,18.71,0,0,1,.32,3.43v9.32a18.82,18.82,0,0,1-.32,3.44,11.58,11.58,0,0,1-1.11,3.25,9.6,9.6,0,0,1-2.12,2.75,8.46,8.46,0,0,1-3,1.73,10.46,10.46,0,0,1-3.41.56Zm3.57-3.21h3.79a5.72,5.72,0,0,0,2.85-.74,5.43,5.43,0,0,0,2.12-2,9.13,9.13,0,0,0,1.1-2.78,14.86,14.86,0,0,0,.31-3V75.5a14.68,14.68,0,0,0-.31-2.94,9.28,9.28,0,0,0-1.1-2.79,5.43,5.43,0,0,0-2.12-2A5.82,5.82,0,0,0,99.89,67H96.1Z" transform="translate(0 -61.03)"/><path class="cls-1" d="M116.17,96.55V63.77h15.61V67h-12V77.24h9.5v3.21h-9.5V93.34h12v3.21Z" transform="translate(0 -61.03)"/><path class="cls-1" d="M137.13,96.55V63.77h5l8.57,26.81c0-1.28,0-2.58-.05-3.88q-.09-4.92-.09-9.82V63.77h3.57V96.55h-5l-8.57-26.8c0,1.28,0,2.57.05,3.88q.09,4.91.09,9.81V96.55Z" transform="translate(0 -61.03)"/><path class="cls-1" d="M167.91,96.91a11.26,11.26,0,0,1-2.83-.36,7.71,7.71,0,0,1-4.56-3.25,8.6,8.6,0,0,1-1.11-2.61,12.38,12.38,0,0,1-.33-2.84V72.47a12.29,12.29,0,0,1,.33-2.83A8.4,8.4,0,0,1,160.52,67a7.57,7.57,0,0,1,2-2.06,7.66,7.66,0,0,1,2.59-1.2,11.26,11.26,0,0,1,2.83-.36,10.42,10.42,0,0,1,4.06.83,7,7,0,0,1,3.16,2.61,8.76,8.76,0,0,1,1.47,3.83l-3.48.63a6.32,6.32,0,0,0-.87-2.41,4.25,4.25,0,0,0-1.87-1.72,5.82,5.82,0,0,0-4.64-.13A4.47,4.47,0,0,0,164,68.34a5.13,5.13,0,0,0-1,1.94,8.5,8.5,0,0,0-.29,2.19V87.85a8.44,8.44,0,0,0,.29,2.19A5.13,5.13,0,0,0,164,92a4.47,4.47,0,0,0,1.78,1.29,5.6,5.6,0,0,0,2.17.43,5.75,5.75,0,0,0,2.47-.56,4.2,4.2,0,0,0,1.87-1.72,6.26,6.26,0,0,0,.87-2.41l3.48.63a9.55,9.55,0,0,1-.93,3A7.56,7.56,0,0,1,173.73,95,7.66,7.66,0,0,1,171,96.46,10.71,10.71,0,0,1,167.91,96.91Z" transform="translate(0 -61.03)"/><path class="cls-1" d="M183.07,96.55V63.77h15.61V67h-12V77.24h9.5v3.21h-9.5V93.34h12v3.21Z" transform="translate(0 -61.03)"/><path class="cls-1" d="M212.37,96.91a11.42,11.42,0,0,1-3.07-.42A7.27,7.27,0,0,1,206.57,95a8.08,8.08,0,0,1-2.76-5.4l3.52-.49a5.93,5.93,0,0,0,.78,2.36,3.86,3.86,0,0,0,1.83,1.65,5.77,5.77,0,0,0,5-.06,4.1,4.1,0,0,0,1.85-1.83,5.56,5.56,0,0,0,.62-2.57,5.64,5.64,0,0,0-1.69-4A13.26,13.26,0,0,0,212,81.9a24.86,24.86,0,0,1-3.88-2.39,10.38,10.38,0,0,1-3-3.45A9,9,0,0,1,204,71.71a9.35,9.35,0,0,1,.6-3.3,7.4,7.4,0,0,1,1.86-2.79,7.28,7.28,0,0,1,2.87-1.69,11,11,0,0,1,3.28-.52,11.12,11.12,0,0,1,3.08.43,7,7,0,0,1,2.72,1.45,7.83,7.83,0,0,1,1.92,2.43,8.05,8.05,0,0,1,.84,3l-3.52.49a5.93,5.93,0,0,0-.78-2.36,4,4,0,0,0-1.83-1.65,5.79,5.79,0,0,0-2.43-.53,5.73,5.73,0,0,0-2.56.6,4,4,0,0,0-1.85,1.83,5.51,5.51,0,0,0-.63,2.56,5.68,5.68,0,0,0,1.7,4A13.38,13.38,0,0,0,213,78.42a25.15,25.15,0,0,1,3.88,2.39,10.53,10.53,0,0,1,3,3.45A9.14,9.14,0,0,1,221,88.61a9.35,9.35,0,0,1-.6,3.3,7.47,7.47,0,0,1-4.73,4.49A10.9,10.9,0,0,1,212.37,96.91Z" transform="translate(0 -61.03)"/><path class="cls-1" d="M234.81,96.91a11,11,0,0,1-3.5-.58,7.39,7.39,0,0,1-3-1.9,7.47,7.47,0,0,1-1.81-3.05,11.85,11.85,0,0,1-.53-3.53V72.47a11.85,11.85,0,0,1,.53-3.53,7.54,7.54,0,0,1,1.81-3,7.39,7.39,0,0,1,3-1.9,10.85,10.85,0,0,1,7,0,7.58,7.58,0,0,1,4.79,4.95,11.86,11.86,0,0,1,.54,3.53V87.85a11.86,11.86,0,0,1-.54,3.53,7.58,7.58,0,0,1-4.79,5A11.07,11.07,0,0,1,234.81,96.91Zm0-3.21a5.59,5.59,0,0,0,2.16-.43A4.47,4.47,0,0,0,238.75,92a5,5,0,0,0,1-1.94,8.44,8.44,0,0,0,.29-2.19V72.47a8.5,8.5,0,0,0-.29-2.19,5,5,0,0,0-1-1.94A4.47,4.47,0,0,0,237,67.05a5.79,5.79,0,0,0-4.33,0,4.47,4.47,0,0,0-1.78,1.29,5.13,5.13,0,0,0-1,1.94,8.5,8.5,0,0,0-.29,2.19V87.85a8.44,8.44,0,0,0,.29,2.19,5.13,5.13,0,0,0,1,1.94,4.47,4.47,0,0,0,1.78,1.29A5.6,5.6,0,0,0,234.81,93.7Z" transform="translate(0 -61.03)"/><path class="cls-1" d="M250,96.55V63.77h15.61V67h-12V77.24H263v3.21h-9.5v16.1Z" transform="translate(0 -61.03)"/><path class="cls-1" d="M277.62,96.55V67H270.4V63.77h18V67h-7.23V96.55Z" transform="translate(0 -61.03)"/><circle class="cls-2" cx="11.19" cy="30.71" r="4.31"/><circle class="cls-3" cx="11.64" cy="4.31" r="4.31"/><path class="cls-4" d="M16.18,82.72a3.16,3.16,0,0,1-2,1.44,3.21,3.21,0,0,1-3.46-1.48h0a3.52,3.52,0,0,0-4.24-1.23h0a3.36,3.36,0,0,1-.48.13A4.87,4.87,0,0,1,.12,77.89a4.66,4.66,0,0,1,0-2.26,3.07,3.07,0,0,0,.07.42,5.35,5.35,0,0,0,6.39,4c.18,0,.36-.1.53-.15h0a5.23,5.23,0,0,1,1.55-.26,3.64,3.64,0,0,1,3.08,1.61,3.5,3.5,0,0,0,3.79,1.62A4,4,0,0,0,16.18,82.72Z" transform="translate(0 -61.03)"/><path class="cls-5" d="M16.18,82.72a4,4,0,0,1-.59.18,3.5,3.5,0,0,1-3.79-1.62,3.64,3.64,0,0,0-3.08-1.61,5.23,5.23,0,0,0-1.55.26h0c-.17,0-.35.11-.53.15a5.35,5.35,0,0,1-6.39-4,3.07,3.07,0,0,1-.07-.42,4.88,4.88,0,0,1,9.35-.42s.18.43.44.91a3.74,3.74,0,0,0,.93,1.23,3.42,3.42,0,0,0,2.15.5h.09a3.2,3.2,0,0,1,3.48,2.48A3.16,3.16,0,0,1,16.18,82.72Z" transform="translate(0 -61.03)"/><path class="cls-6" d="M14.46,94.58A4.33,4.33,0,0,1,11.72,96a4.2,4.2,0,0,1-4.79-3.52,4,4,0,0,1,0-1.09,5.25,5.25,0,0,0,5.81,3.67A5.48,5.48,0,0,0,14.46,94.58Z" transform="translate(0 -61.03)"/><path class="cls-7" d="M15,68.14a4.34,4.34,0,0,1-2.76,1.45,4.22,4.22,0,0,1-4.83-3.5,3.54,3.54,0,0,1,0-1.08,5.29,5.29,0,0,0,5.85,3.65A5.54,5.54,0,0,0,15,68.14Z" transform="translate(0 -61.03)"/><text class="cls-8" transform="translate(28.12 52.3)">T<tspan class="cls-9" x="8.33" y="0">h</tspan><tspan x="16.33" y="0">ink.</tspan><tspan class="cls-10" x="39.26" y="0"> </tspan><tspan class="cls-11" x="43.03" y="0">D</tspan><tspan class="cls-12" x="52.81" y="0">e</tspan><tspan class="cls-13" x="60.24" y="0">s</tspan><tspan class="cls-14" x="67.27" y="0">i</tspan><tspan class="cls-11" x="70.69" y="0">gn.</tspan><tspan class="cls-10" x="90.65" y="0"> </tspan><tspan class="cls-15" x="94.42" y="0">D</tspan><tspan class="cls-16" x="104.19" y="0">e</tspan><tspan class="cls-17" x="111.63" y="0">l</tspan><tspan class="cls-18" x="115.18" y="0">i</tspan><tspan class="cls-17" x="118.6" y="0">v</tspan><tspan class="cls-19" x="125.96" y="0">e</tspan><tspan class="cls-15" x="133.46" y="0">r.</tspan><tspan class="cls-20" x="142.35" y="0"> </tspan></text></svg>