<svg width="60" height="60" viewBox="0 0 60 60" fill="none" xmlns="http://www.w3.org/2000/svg">
<rect width="60" height="60" fill="white"/>
<g clip-path="url(#clip0_306_539)">
<path d="M30.4901 47.0199C32.8704 47.0199 34.8001 45.0902 34.8001 42.7099C34.8001 40.3296 32.8704 38.3999 30.4901 38.3999C28.1097 38.3999 26.1801 40.3296 26.1801 42.7099C26.1801 45.0902 28.1097 47.0199 30.4901 47.0199Z" fill="url(#paint0_linear_306_539)"/>
<path d="M30.93 20.62C33.3103 20.62 35.24 18.6903 35.24 16.31C35.24 13.9297 33.3103 12 30.93 12C28.5496 12 26.62 13.9297 26.62 16.31C26.62 18.6903 28.5496 20.62 30.93 20.62Z" fill="url(#paint1_linear_306_539)"/>
<path d="M35.49 33.6901C35.2701 34.0519 34.9798 34.3657 34.6362 34.6131C34.2926 34.8605 33.9029 35.0363 33.49 35.1301C32.8309 35.279 32.1417 35.216 31.5204 34.9503C30.8992 34.6846 30.3776 34.2296 30.03 33.6501V33.6501C29.5696 32.9922 28.898 32.5115 28.1268 32.2878C27.3556 32.064 26.5311 32.1107 25.79 32.4201V32.4201C25.6335 32.4752 25.473 32.5187 25.31 32.5501C24.6842 32.6933 24.0362 32.7113 23.4034 32.6031C22.7705 32.495 22.1653 32.2627 21.6225 31.9198C21.0798 31.5769 20.6102 31.13 20.2408 30.6049C19.8714 30.0798 19.6094 29.4868 19.47 28.8601C19.2846 28.1182 19.2846 27.342 19.47 26.6001C19.468 26.7337 19.4747 26.8673 19.49 27.0001C19.8116 28.3752 20.6638 29.5674 21.8608 30.3168C23.0579 31.0661 24.5026 31.3117 25.88 31.0001C26.06 31.0001 26.24 30.9001 26.41 30.8501C26.9106 30.6859 27.4332 30.5982 27.96 30.5901C28.5669 30.5804 29.1666 30.7226 29.7046 31.0038C30.2425 31.285 30.7016 31.6962 31.04 32.2001C31.4191 32.8364 31.9903 33.336 32.6713 33.6272C33.3524 33.9183 34.1082 33.9858 34.8301 33.8201C35.0533 33.7954 35.2741 33.7519 35.49 33.6901V33.6901Z" fill="#C0E5E4"/>
<path d="M35.4901 33.69C35.2983 33.7651 35.101 33.8253 34.9 33.87C34.1782 34.0357 33.4223 33.9682 32.7413 33.677C32.0602 33.3859 31.4891 32.8863 31.11 32.25C30.7716 31.7461 30.3125 31.3349 29.7746 31.0537C29.2367 30.7725 28.6369 30.6303 28.03 30.64C27.5032 30.6481 26.9807 30.7357 26.48 30.9V30.9C26.31 30.95 26.1301 31.01 25.9501 31.05C25.2597 31.2139 24.5436 31.2389 23.8435 31.1235C23.1434 31.0081 22.4733 30.7545 21.8721 30.3776C21.2709 30.0007 20.7507 29.508 20.3417 28.9281C19.9328 28.3482 19.6433 27.6928 19.4901 27C19.457 26.8618 19.4336 26.7214 19.42 26.58C19.673 25.558 20.2496 24.6452 21.0639 23.9779C21.8782 23.3106 22.8864 22.9245 23.9382 22.8772C24.9899 22.83 26.0287 23.1241 26.8995 23.7158C27.7704 24.3074 28.4266 25.1648 28.7701 26.16C28.7701 26.16 28.95 26.59 29.21 27.07C29.4312 27.5401 29.748 27.959 30.1401 28.3C30.7818 28.6997 31.5378 28.8755 32.29 28.8H32.3801C33.1638 28.7119 33.9524 28.9163 34.5947 29.374C35.2369 29.8317 35.6875 30.5104 35.86 31.28C35.9611 31.6862 35.9804 32.1084 35.9169 32.5221C35.8534 32.9358 35.7083 33.3328 35.4901 33.69V33.69Z" fill="url(#paint2_linear_306_539)"/>
<path d="M33.7501 45.5499C33.0513 46.3549 32.0784 46.8717 31.0201 46.9999C29.9168 47.1693 28.7914 46.8937 27.8913 46.2337C26.9912 45.5736 26.39 44.5831 26.22 43.4799C26.1703 43.1183 26.1703 42.7515 26.22 42.3899C26.5875 43.5967 27.3764 44.6312 28.4429 45.3049C29.5094 45.9785 30.7825 46.2465 32.03 46.0599C32.6278 45.987 33.2092 45.8146 33.7501 45.5499V45.5499Z" fill="url(#paint3_linear_306_539)"/>
<path d="M34.25 19.11C33.5384 19.9147 32.5564 20.4306 31.49 20.56C30.3843 20.7359 29.2539 20.4663 28.3467 19.8102C27.4394 19.1541 26.8293 18.1651 26.6499 17.06C26.5947 16.7021 26.5947 16.3379 26.6499 15.98C27.0255 17.1866 27.8214 18.2184 28.893 18.8882C29.9646 19.5579 31.2408 19.8211 32.49 19.63C33.1012 19.5546 33.6959 19.3789 34.25 19.11V19.11Z" fill="url(#paint4_linear_306_539)"/>
<path d="M13.83 46.2701C12.8753 46.2699 11.9244 46.1489 11 45.9101C10.0683 45.6782 9.18927 45.2709 8.40997 44.7101C7.62004 44.1589 6.94145 43.4634 6.40997 42.6601C5.89506 41.8579 5.51661 40.976 5.28998 40.0501C5.07126 39.1226 4.9605 38.173 4.95996 37.2201V21.8301C4.97297 20.8756 5.0972 19.9258 5.33002 19.0001C5.56523 18.0704 5.95751 17.1877 6.48999 16.3901C7.02108 15.6004 7.70029 14.9212 8.48999 14.3901C9.26876 13.8261 10.1478 13.4155 11.08 13.1801C12.0044 12.9412 12.9552 12.8202 13.91 12.8201C15.3052 12.8221 16.6859 13.1044 17.97 13.6501C19.2601 14.1853 20.3607 15.0943 21.13 16.2601C21.8682 17.3839 22.3339 18.6646 22.49 20.0001L19.02 20.6301C18.8931 19.7769 18.5972 18.9576 18.15 18.2201C17.7095 17.4715 17.0547 16.8724 16.27 16.5001C15.5034 16.1559 14.6702 15.9852 13.83 16.0001C13.0864 15.9992 12.3496 16.1418 11.66 16.4201C10.9685 16.6952 10.3567 17.1386 9.88 17.7101C9.41138 18.2775 9.07032 18.9392 8.88 19.6501C8.6923 20.3649 8.59816 21.101 8.59998 21.8401V37.2201C8.59754 37.9559 8.69171 38.6888 8.88 39.4001C9.07032 40.111 9.41138 40.7726 9.88 41.3401C10.3589 41.9115 10.9699 42.3577 11.66 42.6401C12.3496 42.9184 13.0864 43.061 13.83 43.0601C14.6849 43.0603 15.5288 42.869 16.3 42.5001C17.0889 42.1341 17.7455 41.5334 18.18 40.7801C18.627 40.046 18.9228 39.23 19.05 38.3801L22.49 39.0001C22.3499 40.045 22.0355 41.0591 21.56 42.0001C21.0894 42.9277 20.4284 43.7455 19.62 44.4001C18.8157 45.066 17.883 45.5596 16.88 45.8501C15.8885 46.1346 14.8615 46.276 13.83 46.2701V46.2701Z" fill="#191F14"/>
<path d="M45.65 46.27C44.609 46.2701 43.5729 46.1288 42.57 45.85C41.5706 45.5655 40.6433 45.0712 39.85 44.4C39.0624 43.7327 38.4135 42.9173 37.94 42C37.4626 41.0654 37.1738 40.0461 37.09 39L40.61 38.51C40.7003 39.343 40.9662 40.1473 41.39 40.87C41.8034 41.6052 42.4461 42.1847 43.22 42.52C44.0045 42.8857 44.8613 43.0702 45.7268 43.0598C46.5923 43.0494 47.4444 42.8444 48.22 42.46C49.019 42.0671 49.6684 41.4247 50.07 40.63C50.6172 39.5592 50.8085 38.3418 50.6161 37.1548C50.4236 35.9677 49.8575 34.8731 49 34.03C47.9273 32.8967 46.6651 31.9593 45.27 31.26C43.9085 30.5836 42.61 29.7871 41.39 28.88C40.1481 27.961 39.1238 26.7797 38.39 25.42C37.655 24.088 37.2697 22.5914 37.27 21.07C37.2695 19.9428 37.4727 18.8249 37.87 17.77C38.2656 16.7126 38.8974 15.7595 39.717 14.9831C40.5367 14.2068 41.5227 13.6277 42.6 13.29C43.6607 12.9517 44.7667 12.7764 45.88 12.77C46.9214 12.7734 47.9575 12.918 48.96 13.2C49.9631 13.4753 50.8923 13.9706 51.68 14.65C52.4752 15.3218 53.125 16.1487 53.59 17.08C54.0776 17.9853 54.3834 18.9773 54.49 20L50.97 20.49C50.8796 19.6571 50.6138 18.8528 50.19 18.13C49.7688 17.4012 49.1284 16.8238 48.36 16.48C47.5737 16.1194 46.717 15.9386 45.8521 15.9507C44.9872 15.9628 44.1358 16.1675 43.36 16.55C42.5427 16.9433 41.8833 17.6027 41.49 18.42C40.9428 19.4908 40.7515 20.7083 40.9439 21.8953C41.1363 23.0823 41.7025 24.177 42.56 25.02C43.6336 26.1496 44.8958 27.0836 46.29 27.78C47.6517 28.4599 48.9501 29.2598 50.17 30.17C51.414 31.0828 52.4388 32.2613 53.17 33.62C53.8995 34.9637 54.2746 36.4711 54.26 38C54.2606 39.1272 54.0573 40.2452 53.66 41.3C53.2624 42.3574 52.6301 43.3108 51.8109 44.0885C50.9916 44.8662 50.0066 45.448 48.93 45.79C47.8674 46.1157 46.7613 46.2776 45.65 46.27V46.27Z" fill="#191F14"/>
</g>
<defs>
<linearGradient id="paint0_linear_306_539" x1="26.1801" y1="42.7099" x2="34.7901" y2="42.7099" gradientUnits="userSpaceOnUse">
<stop stop-color="#A6206D"/>
<stop offset="1" stop-color="#DF4F9C"/>
</linearGradient>
<linearGradient id="paint1_linear_306_539" x1="26.62" y1="16.31" x2="35.24" y2="16.31" gradientUnits="userSpaceOnUse">
<stop stop-color="#F26522"/>
<stop offset="1" stop-color="#FFD202"/>
</linearGradient>
<linearGradient id="paint2_linear_306_539" x1="19.45" y1="28.43" x2="35.9701" y2="28.43" gradientUnits="userSpaceOnUse">
<stop stop-color="#75CBCA"/>
<stop offset="1" stop-color="#34AAA1"/>
</linearGradient>
<linearGradient id="paint3_linear_306_539" x1="26.19" y1="44.7199" x2="33.7501" y2="44.7199" gradientUnits="userSpaceOnUse">
<stop stop-color="#DF4F9C"/>
<stop offset="1" stop-color="#ECABCD"/>
</linearGradient>
<linearGradient id="paint4_linear_306_539" x1="28.891" y1="18.7008" x2="36.536" y2="18.7008" gradientUnits="userSpaceOnUse">
<stop stop-color="#F4C778"/>
<stop offset="1" stop-color="#FFD202"/>
</linearGradient>
<clipPath id="clip0_306_539">
<rect width="49.48" height="35.05" fill="white" transform="translate(5 12)"/>
</clipPath>
</defs>
</svg>
