<svg  viewBox="0 0 948 72" fill="none" xmlns="http://www.w3.org/2000/svg">
<path d="M14.592 56H24.96V19.648H39.296V11.2H0.256V19.648H14.592V56ZM71.4985 21.056C67.0825 21.056 63.2425 22.464 60.5545 25.152V8.512H50.5705V56H60.5545V38.976C60.5545 32.64 64.0105 29.696 68.8105 29.696C73.2265 29.696 75.7865 32.256 75.7865 37.824V56H85.7705V36.288C85.7705 25.792 79.6265 21.056 71.4985 21.056ZM106.213 16.768C109.925 16.768 112.421 14.336 112.421 11.008C112.421 7.936 109.925 5.632 106.213 5.632C102.501 5.632 100.005 8.064 100.005 11.2C100.005 14.336 102.501 16.768 106.213 16.768ZM101.221 56H111.205V21.568H101.221V56ZM147.798 21.056C143.126 21.056 139.094 22.656 136.406 25.6V21.568H126.87V56H136.854V38.976C136.854 32.64 140.31 29.696 145.11 29.696C149.526 29.696 152.086 32.256 152.086 37.824V56H162.07V36.288C162.07 25.792 155.926 21.056 147.798 21.056ZM203.185 56H215.281L199.665 36.16L214.001 21.568H202.097L187.505 35.392V8.512H177.521V56H187.505V47.232L192.305 42.496L203.185 56ZM230.572 56.512C234.028 56.512 236.78 53.888 236.78 50.24C236.78 46.528 234.028 44.096 230.572 44.096C227.116 44.096 224.364 46.528 224.364 50.24C224.364 53.888 227.116 56.512 230.572 56.512Z" fill="url(#paint0_linear_187_179)"/>
<path d="M304.312 56H324.664C339.32 56 349.368 47.168 349.368 33.6C349.368 20.032 339.32 11.2 324.664 11.2H304.312V56ZM314.68 47.488V19.712H324.152C333.048 19.712 338.872 25.024 338.872 33.6C338.872 42.176 333.048 47.488 324.152 47.488H314.68ZM396.611 38.912C396.611 27.84 388.803 21.056 378.691 21.056C368.195 21.056 360.323 28.48 360.323 38.784C360.323 49.024 368.067 56.512 379.971 56.512C386.179 56.512 390.979 54.592 394.179 50.944L388.867 45.184C386.499 47.424 383.875 48.512 380.227 48.512C374.979 48.512 371.331 45.888 370.371 41.6H396.419C396.483 40.768 396.611 39.68 396.611 38.912ZM378.755 28.608C383.235 28.608 386.499 31.424 387.203 35.776H370.243C370.947 31.36 374.211 28.608 378.755 28.608ZM421.242 56.512C431.546 56.512 437.498 51.968 437.498 45.568C437.498 32 416.698 37.696 416.698 31.808C416.698 30.016 418.618 28.608 423.098 28.608C426.234 28.608 429.626 29.248 433.018 31.168L436.346 24.064C433.082 22.144 427.834 21.056 423.098 21.056C413.05 21.056 407.162 25.664 407.162 32.192C407.162 45.952 427.962 40.192 427.962 45.824C427.962 47.744 426.234 48.96 421.626 48.96C417.402 48.96 412.73 47.616 409.658 45.632L406.33 52.8C409.53 54.912 415.418 56.512 421.242 56.512ZM455.05 16.768C458.762 16.768 461.258 14.336 461.258 11.008C461.258 7.936 458.762 5.632 455.05 5.632C451.338 5.632 448.842 8.064 448.842 11.2C448.842 14.336 451.338 16.768 455.05 16.768ZM450.058 56H460.042V21.568H450.058V56ZM501.756 21.568V25.984C499.132 22.656 495.164 21.056 490.364 21.056C480.828 21.056 473.148 27.648 473.148 37.696C473.148 47.744 480.828 54.336 490.364 54.336C494.844 54.336 498.62 52.928 501.244 50.048V51.52C501.244 57.728 498.172 60.928 491.132 60.928C486.716 60.928 481.916 59.392 478.972 57.024L475.004 64.192C479.036 67.328 485.372 68.928 491.9 68.928C504.316 68.928 511.228 63.04 511.228 50.24V21.568H501.756ZM492.348 46.144C487.1 46.144 483.26 42.752 483.26 37.696C483.26 32.64 487.1 29.248 492.348 29.248C497.596 29.248 501.372 32.64 501.372 37.696C501.372 42.752 497.596 46.144 492.348 46.144ZM547.849 21.056C543.177 21.056 539.145 22.656 536.457 25.6V21.568H526.921V56H536.905V38.976C536.905 32.64 540.361 29.696 545.161 29.696C549.577 29.696 552.137 32.256 552.137 37.824V56H562.121V36.288C562.121 25.792 555.977 21.056 547.849 21.056ZM581.346 56.512C584.802 56.512 587.554 53.888 587.554 50.24C587.554 46.528 584.802 44.096 581.346 44.096C577.89 44.096 575.138 46.528 575.138 50.24C575.138 53.888 577.89 56.512 581.346 56.512Z" fill="url(#paint1_linear_187_179)"/>
<path d="M655.312 56H675.664C690.32 56 700.368 47.168 700.368 33.6C700.368 20.032 690.32 11.2 675.664 11.2H655.312V56ZM665.68 47.488V19.712H675.152C684.048 19.712 689.872 25.024 689.872 33.6C689.872 42.176 684.048 47.488 675.152 47.488H665.68ZM747.611 38.912C747.611 27.84 739.803 21.056 729.691 21.056C719.195 21.056 711.323 28.48 711.323 38.784C711.323 49.024 719.067 56.512 730.971 56.512C737.179 56.512 741.979 54.592 745.179 50.944L739.867 45.184C737.499 47.424 734.875 48.512 731.227 48.512C725.979 48.512 722.331 45.888 721.371 41.6H747.419C747.483 40.768 747.611 39.68 747.611 38.912ZM729.755 28.608C734.235 28.608 737.499 31.424 738.203 35.776H721.243C721.947 31.36 725.211 28.608 729.755 28.608ZM760.658 56H770.642V8.512H760.658V56ZM791.3 16.768C795.012 16.768 797.508 14.336 797.508 11.008C797.508 7.936 795.012 5.632 791.3 5.632C787.588 5.632 785.092 8.064 785.092 11.2C785.092 14.336 787.588 16.768 791.3 16.768ZM786.308 56H796.292V21.568H786.308V56ZM836.534 21.568L826.678 44.992L817.142 21.568H806.838L821.302 56H831.606L846.134 21.568H836.534ZM889.399 38.912C889.399 27.84 881.591 21.056 871.479 21.056C860.983 21.056 853.111 28.48 853.111 38.784C853.111 49.024 860.855 56.512 872.759 56.512C878.967 56.512 883.767 54.592 886.967 50.944L881.655 45.184C879.287 47.424 876.663 48.512 873.015 48.512C867.767 48.512 864.119 45.888 863.159 41.6H889.207C889.271 40.768 889.399 39.68 889.399 38.912ZM871.543 28.608C876.023 28.608 879.287 31.424 879.991 35.776H863.031C863.735 31.36 866.999 28.608 871.543 28.608ZM911.981 26.112V21.568H902.445V56H912.429V39.744C912.429 33.152 916.077 30.144 921.581 30.144C922.349 30.144 922.989 30.208 923.821 30.272V21.056C918.509 21.056 914.413 22.784 911.981 26.112ZM939.559 56.512C943.015 56.512 945.767 53.888 945.767 50.24C945.767 46.528 943.015 44.096 939.559 44.096C936.103 44.096 933.351 46.528 933.351 50.24C933.351 53.888 936.103 56.512 939.559 56.512Z" fill="url(#paint2_linear_187_179)"/>
<defs>
<linearGradient id="paint0_linear_187_179" x1="68.9423" y1="11.8437" x2="164.798" y2="114.161" gradientUnits="userSpaceOnUse">
<stop stop-color="#FBA47F"/>
<stop offset="1" stop-color="#DF6B00"/>
</linearGradient>
<linearGradient id="paint1_linear_187_179" x1="382.942" y1="11.8437" x2="475.795" y2="132.519" gradientUnits="userSpaceOnUse">
<stop stop-color="#7FC0FB"/>
<stop offset="1" stop-color="#4088F4"/>
</linearGradient>
<linearGradient id="paint2_linear_187_179" x1="703.709" y1="51.563" x2="806.206" y2="201.695" gradientUnits="userSpaceOnUse">
<stop stop-color="#FF6161"/>
<stop offset="1" stop-color="#F52828"/>
</linearGradient>
</defs>
</svg>
